<?xml version="1.0" encoding="utf-8"?><!-- Uploaded to: SVG Repo, www.svgrepo.com, Generator: SVG Repo Mixer Tools -->
<svg width="800px" height="800px" viewBox="0 0 400 400" fill="none" xmlns="http://www.w3.org/2000/svg">
<path d="M101.233 269.812C101.064 249.243 90.8019 121.708 99.4819 107.424C103.453 100.888 283.598 87.8692 295.568 107.023C307.538 126.176 307.538 291.259 290.547 297.938C265.229 307.89 153.005 300.548 118.644 297.938" stroke="#000000" stroke-opacity="0.9" stroke-width="16" stroke-linecap="round" stroke-linejoin="round"/>
<path d="M152 251C154.25 227.679 152 204.362 152 181" stroke="#000000" stroke-opacity="0.9" stroke-width="16" stroke-linecap="round" stroke-linejoin="round"/>
<path d="M151 152C151 149.71 152 150.902 152 149" stroke="#000000" stroke-opacity="0.9" stroke-width="16" stroke-linecap="round" stroke-linejoin="round"/>
<path d="M192 181C190.478 203.876 191.146 227.015 191.146 250" stroke="#000000" stroke-opacity="0.9" stroke-width="16" stroke-linecap="round" stroke-linejoin="round"/>
<path d="M192 200.435C192 190.538 204.438 182.539 211.503 180.778C256.825 169.483 254.094 192.707 252.092 249" stroke="#000000" stroke-opacity="0.9" stroke-width="16" stroke-linecap="round" stroke-linejoin="round"/>
</svg>